<mxfile host="65bd71144e">
    <diagram id="3sLODvXjzaOpKBxdUT0z" name="SSR">
        <mxGraphModel dx="705" dy="330" grid="1" gridSize="10" guides="1" tooltips="1" connect="1" arrows="1" fold="1" page="1" pageScale="1" pageWidth="850" pageHeight="1100" math="0" shadow="0">
            <root>
                <mxCell id="0"/>
                <mxCell id="1" parent="0"/>
                <mxCell id="5" value="" style="strokeWidth=1;shadow=0;dashed=0;align=center;html=1;shape=mxgraph.mockup.containers.browserWindow;rSize=0;strokeColor=#666666;strokeColor2=#008cff;strokeColor3=#c4c4c4;mainText=,;recursiveResize=0;" vertex="1" parent="1">
                    <mxGeometry x="90" y="30" width="300" height="250" as="geometry"/>
                </mxCell>
                <mxCell id="6" value="Page 1" style="strokeWidth=1;shadow=0;dashed=0;align=center;html=1;shape=mxgraph.mockup.containers.anchor;fontSize=17;fontColor=#666666;align=left;" vertex="1" parent="5">
                    <mxGeometry x="60" y="12" width="110" height="26" as="geometry"/>
                </mxCell>
                <mxCell id="7" value="https://www.draw.io" style="strokeWidth=1;shadow=0;dashed=0;align=center;html=1;shape=mxgraph.mockup.containers.anchor;rSize=0;fontSize=17;fontColor=#666666;align=left;" vertex="1" parent="5">
                    <mxGeometry x="130" y="60" width="250" height="26" as="geometry"/>
                </mxCell>
            </root>
        </mxGraphModel>
    </diagram>
    <diagram id="9f7Ydq38FsQucAwPNJMt" name="SPA">
        <mxGraphModel dx="465" dy="330" grid="1" gridSize="10" guides="1" tooltips="1" connect="1" arrows="1" fold="1" page="1" pageScale="1" pageWidth="850" pageHeight="1100" math="0" shadow="0">
            <root>
                <mxCell id="K8WhHj_rk7RumV03IOrL-0"/>
                <mxCell id="K8WhHj_rk7RumV03IOrL-1" parent="K8WhHj_rk7RumV03IOrL-0"/>
                <mxCell id="K8WhHj_rk7RumV03IOrL-6" style="edgeStyle=none;html=1;entryX=0;entryY=0.5;entryDx=0;entryDy=0;entryPerimeter=0;" edge="1" parent="K8WhHj_rk7RumV03IOrL-1" source="K8WhHj_rk7RumV03IOrL-2" target="K8WhHj_rk7RumV03IOrL-5">
                    <mxGeometry relative="1" as="geometry"/>
                </mxCell>
                <mxCell id="K8WhHj_rk7RumV03IOrL-9" style="edgeStyle=none;html=1;" edge="1" parent="K8WhHj_rk7RumV03IOrL-1" source="K8WhHj_rk7RumV03IOrL-2" target="K8WhHj_rk7RumV03IOrL-8">
                    <mxGeometry relative="1" as="geometry"/>
                </mxCell>
                <mxCell id="K8WhHj_rk7RumV03IOrL-2" value="" style="strokeWidth=1;shadow=0;dashed=0;align=center;html=1;shape=mxgraph.mockup.containers.browserWindow;rSize=0;strokeColor=#666666;strokeColor2=#008cff;strokeColor3=#c4c4c4;mainText=,;recursiveResize=0;" vertex="1" parent="K8WhHj_rk7RumV03IOrL-1">
                    <mxGeometry x="90" y="30" width="300" height="250" as="geometry"/>
                </mxCell>
                <mxCell id="K8WhHj_rk7RumV03IOrL-3" value="Page 1" style="strokeWidth=1;shadow=0;dashed=0;align=center;html=1;shape=mxgraph.mockup.containers.anchor;fontSize=17;fontColor=#666666;align=left;" vertex="1" parent="K8WhHj_rk7RumV03IOrL-2">
                    <mxGeometry x="60" y="12" width="110" height="26" as="geometry"/>
                </mxCell>
                <mxCell id="K8WhHj_rk7RumV03IOrL-4" value="https://www.draw.io" style="strokeWidth=1;shadow=0;dashed=0;align=center;html=1;shape=mxgraph.mockup.containers.anchor;rSize=0;fontSize=17;fontColor=#666666;align=left;" vertex="1" parent="K8WhHj_rk7RumV03IOrL-2">
                    <mxGeometry x="130" y="60" width="250" height="26" as="geometry"/>
                </mxCell>
                <mxCell id="K8WhHj_rk7RumV03IOrL-5" value="" style="verticalLabelPosition=bottom;html=1;verticalAlign=top;align=center;strokeColor=none;fillColor=#00BEF2;shape=mxgraph.azure.code_file;pointerEvents=1;" vertex="1" parent="K8WhHj_rk7RumV03IOrL-1">
                    <mxGeometry x="570" y="130" width="47.5" height="50" as="geometry"/>
                </mxCell>
                <mxCell id="K8WhHj_rk7RumV03IOrL-8" value="" style="sketch=0;outlineConnect=0;fontColor=#232F3E;gradientColor=none;fillColor=#FFFFFF;strokeColor=none;dashed=0;verticalLabelPosition=bottom;verticalAlign=top;align=center;html=1;fontSize=12;fontStyle=0;aspect=fixed;pointerEvents=1;shape=mxgraph.aws4.traditional_server;" vertex="1" parent="K8WhHj_rk7RumV03IOrL-1">
                    <mxGeometry x="217.5" y="390" width="45" height="78" as="geometry"/>
                </mxCell>
            </root>
        </mxGraphModel>
    </diagram>
</mxfile>